<svg width="512" height="512" viewBox="0 0 512 512" fill="none" xmlns="http://www.w3.org/2000/svg">
  <defs>
    <filter id="emerald-glow" x="-50%" y="-50%" width="200%" height="200%">
      <feGaussianBlur in="SourceGraphic" stdDeviation="8" result="blur" />
      <feColorMatrix in="blur" type="matrix" values="0 0 0 0 0.063  0 0 0 0 0.725  0 0 0 0 0.506  0 0 0 0.6 0" />
      <feMerge>
        <feMergeNode />
        <feMergeNode in="SourceGraphic" />
      </feMerge>
    </filter>
  </defs>

  <rect x="20" y="20" width="100" height="100" rx="12" stroke="#27272A" stroke-width="4"/>
  <rect x="144" y="20" width="100" height="100" rx="12" stroke="#27272A" stroke-width="4"/>
  <rect x="268" y="20" width="100" height="100" rx="12" stroke="#27272A" stroke-width="4"/>
  <rect x="392" y="20" width="100" height="100" rx="12" stroke="#27272A" stroke-width="4"/>

  <rect x="20" y="144" width="100" height="100" rx="12" stroke="#27272A" stroke-width="4"/>
  <rect x="144" y="144" width="100" height="100" rx="12" stroke="#27272A" stroke-width="4"/>
  <rect x="268" y="144" width="100" height="100" rx="12" stroke="#27272A" stroke-width="4"/>
  <rect x="392" y="144" width="100" height="100" rx="12" stroke="#27272A" stroke-width="4"/>

  <rect x="20" y="268" width="100" height="100" rx="12" stroke="#27272A" stroke-width="4"/>
  <rect x="144" y="268" width="100" height="100" rx="12" stroke="#27272A" stroke-width="4"/>
  <rect x="268" y="268" width="100" height="100" rx="12" stroke="#27272A" stroke-width="4"/>
  <rect x="392" y="268" width="100" height="100" rx="12" stroke="#27272A" stroke-width="4"/>

  <rect x="20" y="392" width="100" height="100" rx="12" stroke="#27272A" stroke-width="4"/>
  <rect x="144" y="392" width="100" height="100" rx="12" stroke="#27272A" stroke-width="4"/>
  <rect x="268" y="392" width="100" height="100" rx="12" stroke="#27272A" stroke-width="4"/>
  
  <rect x="392" y="392" width="100" height="100" rx="12" fill="#10B981" filter="url(#emerald-glow)"/>
</svg>